<?xml version="1.0" encoding="utf-8"?>
<!-- Generator: Adobe Illustrator 16.0.0, SVG Export Plug-In . SVG Version: 6.00 Build 0)  -->
<!DOCTYPE svg PUBLIC "-//W3C//DTD SVG 1.1//EN" "http://www.w3.org/Graphics/SVG/1.1/DTD/svg11.dtd">
<svg version="1.1" id="Camada_1" xmlns="http://www.w3.org/2000/svg" xmlns:xlink="http://www.w3.org/1999/xlink" x="0px" y="0px"
	 width="1588px" height="2404px" viewBox="0 0 1588 2404" enable-background="new 0 0 1588 2404" xml:space="preserve">
<g>
	<path fill="#FFFFFF" d="M429.733,927.964c8.971-12.975,14.414-21.292,10.446-25.107c-3.625-3.482-9.557,1.521-14.394,6.673
		c-123.322,131.379-182.271,244.938-199.112,427.637c-41.5,59.326-137.543,27.684-133.906-59.88
		c34.568-266.009,157.524-463.93,368.867-593.77c140.578-86.362,196.54-87.515,329.688-85.889
		c133.149-1.626,189.11-0.475,329.688,85.889c211.342,129.839,334.299,327.761,368.866,593.77
		c3.638,87.563-92.405,119.206-133.905,59.88c-16.843-182.698-75.791-296.257-199.113-427.637
		c-4.838-5.151-10.768-10.155-14.393-6.673c-3.97,3.814,1.475,12.133,10.444,25.107c178.938,258.872,217.084,531.557-12.252,808.661
		c-76.021,341.489-114.031,512.233-114.031,512.233c-19.942,90.047-179.936,92.543-203.771-3.736
		c1.244-241.785,1.867-362.678,1.867-362.678c-7.914-27.788-56.085-31.109-66.801,0c0,0,0.624,120.893,1.867,362.678
		c-23.836,96.279-183.83,93.783-203.771,3.736c0,0-38.01-170.744-114.032-512.233
		C212.652,1459.522,250.798,1186.836,429.733,927.964L429.733,927.964z M791.323,105.782c121.271,0,219.581,98.31,219.581,219.581
		s-98.311,219.582-219.581,219.582s-219.58-98.311-219.58-219.582S670.053,105.782,791.323,105.782L791.323,105.782z"/>
</g>
</svg>
